<svg xmlns="http://www.w3.org/2000/svg" xmlns:svg="http://www.w3.org/2000/svg" id="svg10" width="75" height="75" version="1.1" viewBox="0 0 75 75"><metadata id="metadata16"/><path style="fill:#000" id="path22" d="M 11.628623,49.893114 C 11.28288,48.164401 11,40.942127 11,33.843615 11,23.293764 11.27388,20.832133 12.5,20.361626 13.325,20.045044 14,18.934167 14,17.893011 14,16.167209 14.847403,16 23.59362,16 c 8.752615,0 9.639468,0.175326 10.116631,2 0.485997,1.858457 1.364016,2 12.40638,2 H 58 v 2.5 c 0,2.25 0.4,2.5 4,2.5 4.48603,0 4.580879,0.253981 2.543969,6.812103 C 63.743153,34.390446 61.987722,40.1 60.643012,44.5 l -2.444927,8 -22.970419,0.268114 -22.97042,0.268115 z M 17.093361,35.5 20.317356,25 H 38.658678 C 50.219559,25 57,24.630319 57,24 57,23.362963 48.833333,23 34.5,23 H 12 v 11.5 c 0,6.46424 0.40929,11.5 0.934683,11.5 0.514075,0 2.38548,-4.725 4.158678,-10.5 z"/></svg>