<svg xmlns="http://www.w3.org/2000/svg" xmlns:svg="http://www.w3.org/2000/svg" id="svg80" width="299" height="299" version="1.1" viewBox="0 0 299 299"><metadata id="metadata86"/><path style="fill:#c71d14;stroke-width:1.00457859;fill-opacity:1" id="path90" d="m 137.40055,291.64223 c -7.11417,-0.64336 -20.91413,-3.36971 -29.19927,-5.76868 C 84.112253,278.89854 64.492001,267.23648 45.734166,248.74377 6.0900895,209.66003 -5.4151598,151.18312 16.210417,98.685445 24.355363,78.912982 30.627398,69.490713 47.450459,51.754629 72.146037,25.718762 99.329481,11.329763 134.5647,5.6424986 c 8.78398,-1.4178087 29.87327,-1.4153836 40.29189,0.00463 19.63221,2.6757948 40.20096,10.6276154 57.1202,22.0824984 8.67491,5.873202 31.87949,29.191579 37.81673,38.002191 6.49668,9.64079 15.76091,29.686716 18.62433,40.299322 7.88225,29.2136 7.85912,57.98559 -0.0678,84.34877 -14.97788,49.81301 -54.87949,86.79623 -106.14375,98.38039 -12.62846,2.85365 -31.61462,4.07485 -44.80579,2.88193 z m 2.7954,-104.40543 11.82007,-12.39473 14.69669,13.89817 c 8.08317,7.64398 16.91352,15.8488 19.623,18.23294 l 4.92632,4.33478 10.82695,-11.24233 c 5.95482,-6.18328 11.43611,-12.10477 12.18065,-13.15887 1.37864,-1.95183 -2.31243,-5.82469 -32.31941,-33.91138 l -4.78704,-4.48069 18.603,-19.54467 18.60301,-19.54467 -12.75871,-12.743435 -12.7587,-12.74343 -13.12636,13.745721 c -7.2195,7.560144 -15.71837,16.451914 -18.88637,19.759474 l -5.76,6.01374 -6.33581,-6.02722 c -3.4847,-3.31497 -12.12818,-11.63318 -19.20773,-18.484927 L 112.6636,86.487572 104.56854,94.448441 C 100.11626,98.826919 94.281383,104.9054 91.602148,107.95616 l -4.871335,5.54686 19.041917,17.84543 c 10.47306,9.81498 19.04193,18.26704 19.04193,18.78234 0,0.51531 -5.53102,6.67693 -12.29114,13.69249 -6.76013,7.01555 -15.029059,15.61384 -18.375406,19.1073 l -6.084263,6.35175 13.089329,12.43749 13.08933,12.43747 7.06668,-7.26289 c 3.88669,-3.99458 12.38573,-12.84051 18.88676,-19.6576 z"/></svg>