<svg xmlns="http://www.w3.org/2000/svg" xmlns:svg="http://www.w3.org/2000/svg" id="svg43" width="64" height="64" preserveAspectRatio="xMidYMid meet" version="1.0" viewBox="0 0 64 64"><metadata id="metadata35">Created by potrace 1.15, written by Peter Selinger 2001-2017</metadata><g id="g41" transform="matrix(0.1,0,0,-0.1,-15.08939,80.000001)" style="fill:#000;stroke:none"><path id="path37" d="m 253,744 c -60,-30 -68,-53 -68,-204 0,-116 3,-139 19,-163 36,-53 57,-57 278,-57 186,0 206,2 236,20 49,30 62,71 62,202 0,132 -14,173 -70,200 -49,25 -408,26 -457,2 z m 452,-59 c 24,-23 25,-30 25,-145 0,-115 -1,-122 -25,-145 -24,-25 -25,-25 -219,-25 -107,0 -202,3 -211,6 -32,13 -45,59 -45,164 0,101 8,133 39,157 11,9 74,12 214,13 197,0 198,0 222,-25 z"/><path id="path39" d="m 180,261 c -13,-25 -13,-27 6,-45 13,-14 54,-16 294,-16 240,0 281,2 294,16 19,18 19,20 6,45 -10,18 -24,19 -300,19 -276,0 -290,-1 -300,-19 z"/></g></svg>