<svg xmlns="http://www.w3.org/2000/svg" xmlns:svg="http://www.w3.org/2000/svg" xmlns:xlink="http://www.w3.org/1999/xlink" id="svg6771" width="22" height="22" version="1.1" viewBox="0 0 22 22"><metadata id="metadata6775"/><title id="title6760">pencil_edit_pen_outline_stroke</title><description>Created with Sketch.</description><defs id="defs6763"><path id="path-1" d="M11,22 C17.0751325,22 22,17.0751325 22,11 C22,4.92486745 17.0751325,0 11,0 C4.92486745,0 0,4.92486745 0,11 C0,17.0751325 4.92486745,22 11,22 L11,22 Z M11,21 C16.5228478,21 21,16.5228478 21,11 C21,5.47715225 16.5228478,1 11,1 C5.47715225,1 1,5.47715225 1,11 C1,16.5228478 5.47715225,21 11,21 L11,21 Z M12.897191,6.82541905 L7.04840705,5.4041585 Z"/></defs><g id="miu" fill="none" fill-rule="evenodd" stroke="none" stroke-width="1"><g id="circle_edit_pen_pencil_outline_stroke"><use id="use6765" fill="#000" fill-rule="evenodd" xlink:href="#path-1"/><use id="use6767" fill="none" xlink:href="#path-1"/></g></g><g id="miu-4" transform="matrix(0.52811899,0.23958076,-0.27022444,0.59566827,10.976955,3.1515536)" style="fill:none;fill-rule:evenodd;stroke:none;stroke-width:1"><path id="editor_flag_notification_glyph" d="M 0,22.188618 V 1.5697033 l 0.97777778,-0.00169 c 0.0654568,0.072084 0,20.6206077 0,20.6206077 z M 2.0180519,2.3330642 c 1.0715417,0.4826781 2.4785899,0.3314973 4.3215659,-0.7633609 2.8772289,-1.70927874 5.0200212,-1.76931402 6.7399102,-1.0297977 0.358749,0.15425422 0.607508,0.31467089 0.747118,0.43469213 l 0.17018,0.14630247 V 10.28872 L 13.189229,9.5944368 C 13.12162,9.5363148 12.956007,9.429516 12.693295,9.3165553 11.266586,8.7031 9.4522907,8.7362459 6.8390104,10.28872 5.0306965,11.362987 3.3269238,11.418266 2.0678711,11.094309 Z" style="fill:#000"/></g></svg>