<svg xmlns="http://www.w3.org/2000/svg" xmlns:svg="http://www.w3.org/2000/svg" id="svg81" width="68" height="68" version="1.1" viewBox="0 0 68 68"><metadata id="metadata87"/><path style="fill:#000" id="path91" d="M 5.0863686,62.991525 C 4.7971246,62.237765 4.6961316,58.74345 4.8619416,55.22638 l 0.301473,-6.394673 h 29.5000024 29.5 v 7.5 7.5 l -29.27558,0.265145 C 10.836297,64.314684 5.5184256,64.117442 5.0863686,62.991525 Z m 0,-22 C 4.7971246,40.237765 4.6961316,36.74345 4.8619416,33.22638 l 0.301473,-6.394673 h 29.5000024 29.5 v 7.5 7.5 l -29.27558,0.265145 C 10.836297,42.314684 5.5184256,42.117442 5.0863686,40.991525 Z m 0,-22 C 4.7971246,18.237765 4.6961316,14.74345 4.8619416,11.22638 l 0.301473,-6.3946726 h 29.5000024 29.5 v 7.4999996 7.5 l -29.27558,0.265145 C 10.836297,20.314684 5.5184256,20.117442 5.0863686,18.991525 Z"/></svg>