<svg xmlns="http://www.w3.org/2000/svg" xmlns:svg="http://www.w3.org/2000/svg" xmlns:xlink="http://www.w3.org/1999/xlink" id="svg3808" width="28" height="28" version="1.1" viewBox="0 0 28 28"><metadata id="metadata3812"/><title id="title3797">device_smart-phone_vertical_glyph</title><description>Created with Sketch.</description><defs id="defs3800"><path id="path-1" d="M 2,0 C 2,0 0,0 0,2.0030817 V 20.030817 c 0,2.003081 2,2.003081 2,2.003081 h 9 c 0,0 2,0 2,-2.003081 V 2.0030817 C 13,0 11,0 11,0 Z M 1,2.5 v 16 h 11 v -16 z m 5.5,18.699997 c 0.5522848,0 1,-0.447715 1,-1 0,-0.552285 -0.4477152,-1 -1,-1 -0.5522848,0 -1,0.447715 -1,1 0,0.552285 0.4477152,1 1,1 z M 4.2212953,1 C 4.0990773,1 4,1.0965536 4,1.2211029 v 0.058565 C 4,1.4017796 4.099877,1.5007707 4.2212953,1.5007707 H 8.7787047 C 8.9009227,1.5007704 9,1.4042168 9,1.2796676 V 1.2211029 C 9,1.0989911 8.9001231,1 8.7787047,1 Z"/></defs><g id="miu" transform="translate(7.309322,2.9533899)" style="fill:none;fill-rule:evenodd;stroke:none;stroke-width:1"><g id="device_smart-phone_vertical_glyph"><use id="use3802" width="100%" height="100%" x="0" y="0" xlink:href="#path-1" style="fill:#000;fill-rule:evenodd"/><use id="use3804" width="100%" height="100%" x="0" y="0" xlink:href="#path-1" style="fill:none"/></g></g></svg>