<svg xmlns="http://www.w3.org/2000/svg" xmlns:xlink="http://www.w3.org/1999/xlink" width="300" height="300" preserveAspectRatio="xMidYMid meet" version="1.1" viewBox="0 0 640 640"><defs><path id="dVbJm9pMu" d="M604.72 320C604.72 477.14 477.14 604.72 320 604.72C162.86 604.72 35.28 477.14 35.28 320C35.28 162.86 162.86 35.28 320 35.28C477.14 35.28 604.72 162.86 604.72 320Z"/><path id="c1cEz1t9BF" d="M383.22 163.08C394.26 163.08 403.22 172.03 403.22 183.08C403.22 196.2 403.22 215.55 403.22 228.67C403.22 239.72 394.26 248.67 383.22 248.67C353.93 248.67 286.07 248.67 256.78 248.67C245.74 248.67 236.78 239.72 236.78 228.67C236.78 215.55 236.78 196.2 236.78 183.08C236.78 172.03 245.74 163.08 256.78 163.08C286.07 163.08 353.93 163.08 383.22 163.08Z"/><path id="ch8ScpF7z" d="M278.39 357.83C289.44 357.83 298.39 366.79 298.39 377.83C298.39 390.95 298.39 410.31 298.39 423.43C298.39 434.47 289.44 443.43 278.39 443.43C249.1 443.43 181.24 443.43 151.96 443.43C140.91 443.43 131.96 434.47 131.96 423.43C131.96 410.31 131.96 390.95 131.96 377.83C131.96 366.79 140.91 357.83 151.96 357.83C181.24 357.83 249.1 357.83 278.39 357.83Z"/><path id="a2ufNoiNSv" d="M494.55 357.83C505.59 357.83 514.55 366.79 514.55 377.83C514.55 390.95 514.55 410.31 514.55 423.43C514.55 434.47 505.59 443.43 494.55 443.43C465.26 443.43 397.4 443.43 368.11 443.43C357.07 443.43 348.11 434.47 348.11 423.43C348.11 410.31 348.11 390.95 348.11 377.83C348.11 366.79 357.07 357.83 368.11 357.83C397.4 357.83 465.26 357.83 494.55 357.83Z"/><path id="g1zyGleeV" d="M312.87 246.29L327.13 246.29L327.13 314.06L312.87 314.06L312.87 246.29Z"/><path id="a4weRXP9G" d="M208.04 314.06L222.31 314.06L222.31 381.82L208.04 381.82L208.04 314.06Z"/><path id="d1HBxv7Dxt" d="M424.2 314.06L438.46 314.06L438.46 381.82L424.2 381.82L424.2 314.06Z"/><path id="h1KSNRne5" d="M208.04 300.98L438.46 300.98L438.46 314.06L208.04 314.06L208.04 300.98Z"/></defs><g><g><g><use fill="#000" fill-opacity="0" opacity="1" xlink:href="#dVbJm9pMu"/><g><use fill-opacity="0" stroke="#000" stroke-opacity="1" stroke-width="50" opacity="1" xlink:href="#dVbJm9pMu"/></g></g><g><use fill="#000" fill-opacity="1" opacity="1" xlink:href="#c1cEz1t9BF"/></g><g><use fill="#000" fill-opacity="1" opacity="1" xlink:href="#ch8ScpF7z"/></g><g><use fill="#000" fill-opacity="1" opacity="1" xlink:href="#a2ufNoiNSv"/></g><g><use fill="#000" fill-opacity="1" opacity="1" xlink:href="#g1zyGleeV"/></g><g><use fill="#000" fill-opacity="1" opacity="1" xlink:href="#a4weRXP9G"/></g><g><use fill="#000" fill-opacity="1" opacity="1" xlink:href="#d1HBxv7Dxt"/></g><g><use fill="#000" fill-opacity="1" opacity="1" xlink:href="#h1KSNRne5"/></g></g></g></svg>