<svg xmlns="http://www.w3.org/2000/svg" xmlns:svg="http://www.w3.org/2000/svg" id="svg1251" width="88" height="88" version="1.1" viewBox="0 0 88 88"><metadata id="metadata1257"/><path style="fill:#000" id="path1261" d="m 55.353302,2.1142234 c 21.76105,5.851874 36.061529,27.5268066 32.372079,49.0656626 -3.24555,18.947395 -17.671869,33.373709 -36.619259,36.61926 -18.0342,3.089126 -37.43958,-6.941843 -45.6352602,-23.58963 -6.38713999,-12.974108 -6.38713999,-26.381514 0,-39.355622 C 14.440302,6.6343744 35.856822,-3.1286746 55.353302,2.1142234 Z m -18.9544,26.4624226 c -5.50246,4.188663 -7.94096,6.692893 -7.94096,8.154987 0,1.900718 0.17361,1.964783 1.75,0.64578 0.9625,-0.805347 4.1125,-3.391995 7,-5.748106 l 5.25,-4.283839 v 19.593119 c 0,18.926451 0.068,19.593118 2,19.593118 1.93194,0 2,-0.666667 2,-19.593118 V 27.345468 l 5.25,4.283839 c 2.8875,2.356111 6.0375,4.942759 7,5.748106 1.57625,1.318886 1.75,1.255094 1.75,-0.642507 0,-1.445487 -2.43262,-3.98834 -7.75,-8.101203 -4.2625,-3.296936 -7.88907,-6.018632 -8.05904,-6.048213 -0.16997,-0.02958 -3.88247,2.666438 -8.25,5.991156 z"/></svg>