<svg xmlns="http://www.w3.org/2000/svg" xmlns:svg="http://www.w3.org/2000/svg" id="svg1166" width="84" height="88" version="1.1" viewBox="0 0 84 88"><metadata id="metadata1172"/><path style="fill:#000" id="path1176" d="M 0.67761553,85.762279 C 0.30492557,85.389591 -4.4305763e-6,66.484665 -4.4305763e-6,43.751331 V 2.4179984 H 35.276815 70.553635 l 6.73638,6.788398 6.73638,6.7883976 -0.2632,34.961602 -0.2632,34.961602 -41.07238,0.260947 C 19.837805,86.322466 1.0503055,86.134965 0.67761553,85.762279 Z M 67.999995,64.417998 v -14 h -26 -26 v 14 14 h 26 26 z m -8,-44 v -10 h -4 -4 v 4 c 0,3.333333 -0.33333,4 -2,4 -1.66666,0 -2,-0.666667 -2,-4 v -4 h -12 -12 v 10 10 h 18 18 z"/></svg>