<svg xmlns="http://www.w3.org/2000/svg" xmlns:svg="http://www.w3.org/2000/svg" id="svg71" width="64pt" height="64pt" preserveAspectRatio="xMidYMid meet" version="1.0" viewBox="0 0 85.333 85.333"><metadata id="metadata63">Created by potrace 1.15, written by Peter Selinger 2001-2017</metadata><g id="g69" transform="matrix(0.1,0,0,-0.1,-5.2627118,91.536722)" style="fill:#000;stroke:none"><path id="path65" d="m 183,744 c -60,-30 -68,-53 -68,-204 0,-116 3,-139 19,-163 37,-55 50,-57 353,-57 261,0 280,1 311,20 49,30 62,71 62,202 0,132 -14,173 -70,200 -31,16 -68,18 -305,18 -225,0 -275,-3 -302,-16 z m 602,-59 c 24,-23 25,-30 25,-145 0,-115 -1,-122 -25,-145 L 761,370 H 491 c -148,0 -277,3 -286,6 -32,13 -45,59 -45,164 0,101 8,133 39,157 12,9 90,12 289,13 h 273 z"/><path id="path67" d="m 180,261 c -13,-25 -13,-27 6,-45 13,-14 54,-16 294,-16 240,0 281,2 294,16 19,18 19,20 6,45 -10,18 -24,19 -300,19 -276,0 -290,-1 -300,-19 z"/></g></svg>